<?xml version="1.0" encoding="UTF-8"?><svg id="a" xmlns="http://www.w3.org/2000/svg" viewBox="0 0 276 98"><defs><style>.b{fill:#000;}.b,.c,.d,.e{stroke-width:0px;}.c{fill:#ff9f1c;}.d{fill:#ffbf69;}.e{fill:#5a189a;}</style></defs><path class="b" d="M127.22,58.39v-.4h1c.59,0,1.07-.09,1.44-.28.38-.19.66-.49.84-.9.19-.41.28-.97.28-1.67v-22.27c0-.7-.1-1.24-.3-1.63-.2-.39-.49-.67-.86-.84s-.87-.26-1.48-.26h-.92v-.4h11.64c2.65,0,4.91.54,6.78,1.62,1.87,1.08,3.3,2.68,4.29,4.79.99,2.11,1.48,4.71,1.48,7.78,0,2.92-.46,5.45-1.38,7.6s-2.32,3.83-4.19,5.04c-1.87,1.2-4.21,1.81-7.02,1.81h-11.6ZM138.09,57.99c2.01,0,3.64-.48,4.9-1.44s2.18-2.48,2.77-4.55c.59-2.07.88-4.77.88-8.09s-.29-5.78-.88-7.8c-.59-2.02-1.5-3.52-2.75-4.49-1.24-.98-2.87-1.46-4.88-1.46h-2.97v27.85h2.93Z"/><path class="b" d="M164.54,58.79c-2.92,0-5.16-.96-6.74-2.89-1.58-1.93-2.37-4.63-2.37-8.11,0-3.77.76-6.61,2.27-8.51,1.51-1.9,3.62-2.85,6.32-2.85,2.54,0,4.52.83,5.94,2.49,1.42,1.66,2.13,4.07,2.13,7.22v.92h-12.32c0,2.67.19,4.85.56,6.52s.96,2.88,1.75,3.63c.79.75,1.8,1.12,3.03,1.12.91,0,1.71-.19,2.41-.56.7-.38,1.28-.94,1.76-1.69.48-.75.8-1.73.96-2.93.35.08.61.25.8.52.19.27.28.58.28.92,0,.59-.25,1.21-.74,1.87-.5.66-1.24,1.2-2.25,1.65s-2.27.66-3.79.66ZM167.75,46.67c0-2.41-.13-4.31-.38-5.72-.25-1.4-.65-2.44-1.18-3.11-.54-.67-1.26-1-2.17-1-.96,0-1.75.33-2.37,1s-1.07,1.71-1.36,3.11-.47,3.31-.52,5.72h7.99Z"/><path class="b" d="M181.91,58.79c-1.42,0-2.63-.19-3.63-.56-1-.38-1.75-.9-2.23-1.57-.48-.67-.72-1.42-.72-2.25,0-.72.15-1.27.44-1.65.29-.37.64-.64,1.04-.8.4-.16.79-.24,1.16-.24,0,1.52.13,2.78.4,3.75s.71,1.71,1.32,2.19,1.42.72,2.41.72c1.28,0,2.31-.35,3.09-1.06.78-.71,1.16-1.77,1.16-3.19,0-.94-.17-1.67-.5-2.21-.33-.53-.86-1.02-1.57-1.44-.71-.43-1.62-.9-2.75-1.4-1.31-.62-2.4-1.22-3.27-1.81-.87-.59-1.52-1.27-1.95-2.05-.43-.78-.64-1.74-.64-2.89,0-1.9.63-3.35,1.89-4.35,1.26-1,2.98-1.5,5.18-1.5,1.34,0,2.45.17,3.33.52s1.54.8,1.99,1.36.66,1.2.66,1.93-.24,1.3-.72,1.73c-.48.43-1.2.64-2.17.64,0-2.09-.27-3.57-.8-4.45s-1.38-1.32-2.53-1.32c-.75,0-1.4.14-1.95.42-.55.28-.98.7-1.3,1.26-.32.56-.48,1.28-.48,2.17s.18,1.6.54,2.15c.36.55.91,1.03,1.65,1.44.74.42,1.68.89,2.83,1.42,1.28.51,2.34,1.06,3.17,1.64.83.59,1.45,1.28,1.87,2.07.42.79.62,1.76.62,2.91,0,2.06-.65,3.65-1.95,4.76s-3.16,1.67-5.6,1.67Z"/><path class="b" d="M191.66,58.39v-.4h.32c.67,0,1.22-.08,1.65-.24.43-.16.74-.45.94-.86.2-.41.3-1.02.3-1.83v-23.92c0-.75-.1-1.33-.3-1.75-.2-.41-.52-.7-.96-.86-.44-.16-.98-.24-1.62-.24h-.24v-.4h7.42v18.2c0,.52,0,1.04-.02,1.56-.01.52-.03,1.02-.06,1.5l6.3-7.46c.48-.56.86-1.04,1.14-1.44.28-.4.48-.74.58-1.02.11-.28.16-.54.16-.78,0-.43-.29-.73-.86-.9s-1.52-.26-2.83-.26v-.4h8.51v.4c-.62,0-1.16.07-1.65.2s-.99.44-1.53.9c-.54.47-1.22,1.17-2.05,2.11l-3.17,3.81,6.3,10.51c.59.94,1.06,1.63,1.42,2.09.36.46.68.75.96.88.28.13.57.2.86.2h.16v.4h-1c-1.02,0-1.87-.04-2.57-.12s-1.31-.24-1.85-.48c-.54-.24-1.02-.58-1.44-1.02s-.83-1.04-1.2-1.79l-4.25-7.5-1.93,2.33v5.22c0,.8.11,1.42.34,1.85.23.43.55.72.98.88.43.16.95.24,1.57.24h.16v.4h-10.55Z"/><path class="b" d="M223.77,58.79c-2.92,0-5.16-.96-6.74-2.89-1.58-1.93-2.37-4.63-2.37-8.11,0-3.77.76-6.61,2.27-8.51,1.51-1.9,3.62-2.85,6.32-2.85,2.54,0,4.52.83,5.94,2.49,1.42,1.66,2.13,4.07,2.13,7.22v.92h-12.32c0,2.67.19,4.85.56,6.52s.96,2.88,1.75,3.63c.79.75,1.8,1.12,3.03,1.12.91,0,1.71-.19,2.41-.56.7-.38,1.28-.94,1.76-1.69.48-.75.8-1.73.96-2.93.35.08.61.25.8.52.19.27.28.58.28.92,0,.59-.25,1.21-.74,1.87-.5.66-1.24,1.2-2.25,1.65s-2.27.66-3.79.66ZM226.98,46.67c0-2.41-.13-4.31-.38-5.72-.25-1.4-.65-2.44-1.18-3.11-.54-.67-1.26-1-2.17-1-.96,0-1.75.33-2.37,1s-1.07,1.71-1.36,3.11-.47,3.31-.52,5.72h7.99Z"/><path class="b" d="M233.92,58.39v-.4h.36c.7,0,1.26-.09,1.69-.26.43-.17.75-.47.96-.88.21-.41.32-1.01.32-1.79v-14.93c0-.72-.1-1.29-.3-1.71-.2-.42-.52-.71-.94-.88-.43-.17-.99-.26-1.69-.26h-.12v-.4h7.22v4.01h.08c.24-.8.56-1.54.96-2.21s.95-1.21,1.65-1.63c.7-.41,1.59-.62,2.69-.62,1.26,0,2.22.28,2.89.84.67.56,1,1.32,1,2.29,0,.88-.31,1.59-.92,2.13-.62.54-1.55.8-2.81.8,0-1.74-.21-2.95-.62-3.63-.42-.68-.96-1.02-1.62-1.02-.62,0-1.13.21-1.54.64-.42.43-.75,1.02-1,1.77-.25.75-.44,1.59-.54,2.53-.11.94-.16,1.97-.16,3.09v9.15c0,.75.11,1.34.32,1.79.21.44.54.75.98.92s1.02.26,1.75.26h.64v.4h-11.24Z"/><rect class="d" x="21" y="24.48" width="67.36" height="10.21"/><rect class="c" x="21" y="22.44" width="67.36" height="10.21"/><rect class="e" x="21" y="40.13" width="67.36" height="10.21"/><rect class="c" x="21" y="38.09" width="67.36" height="10.21"/><rect class="d" x="21.83" y="60.54" width="67.36" height="10.21" transform="translate(-8.91 8.71) rotate(-8.31)"/><rect class="c" x="21.53" y="58.52" width="67.36" height="10.21" transform="translate(-8.62 8.65) rotate(-8.31)"/></svg>