<svg id="visual" viewBox="0 0 960 540" width="960" height="540" xmlns="http://www.w3.org/2000/svg" xmlns:xlink="http://www.w3.org/1999/xlink" version="1.1"><path d="M0 55L87 55L87 114L175 114L175 82L262 82L262 39L349 39L349 33L436 33L436 93L524 93L524 77L611 77L611 60L698 60L698 44L785 44L785 109L873 109L873 109L960 109L960 77L960 0L960 0L873 0L873 0L785 0L785 0L698 0L698 0L611 0L611 0L524 0L524 0L436 0L436 0L349 0L349 0L262 0L262 0L175 0L175 0L87 0L87 0L0 0Z" fill="#ffbf69"></path><path d="M0 228L87 228L87 217L175 217L175 287L262 287L262 233L349 233L349 195L436 195L436 212L524 212L524 217L611 217L611 217L698 217L698 282L785 282L785 228L873 228L873 190L960 190L960 174L960 75L960 107L873 107L873 107L785 107L785 42L698 42L698 58L611 58L611 75L524 75L524 91L436 91L436 31L349 31L349 37L262 37L262 80L175 80L175 112L87 112L87 53L0 53Z" fill="#fc845c"></path><path d="M0 309L87 309L87 255L175 255L175 352L262 352L262 266L349 266L349 287L436 287L436 298L524 298L524 298L611 298L611 293L698 293L698 314L785 314L785 287L873 287L873 266L960 266L960 217L960 172L960 188L873 188L873 226L785 226L785 280L698 280L698 215L611 215L611 215L524 215L524 210L436 210L436 193L349 193L349 231L262 231L262 285L175 285L175 215L87 215L87 226L0 226Z" fill="#e7466a"></path><path d="M0 363L87 363L87 395L175 395L175 428L262 428L262 433L349 433L349 390L436 390L436 401L524 401L524 352L611 352L611 411L698 411L698 368L785 368L785 374L873 374L873 325L960 325L960 347L960 215L960 264L873 264L873 285L785 285L785 312L698 312L698 291L611 291L611 296L524 296L524 296L436 296L436 285L349 285L349 264L262 264L262 350L175 350L175 253L87 253L87 307L0 307Z" fill="#b60883"></path><path d="M0 541L87 541L87 541L175 541L175 541L262 541L262 541L349 541L349 541L436 541L436 541L524 541L524 541L611 541L611 541L698 541L698 541L785 541L785 541L873 541L873 541L960 541L960 541L960 345L960 323L873 323L873 372L785 372L785 366L698 366L698 409L611 409L611 350L524 350L524 399L436 399L436 388L349 388L349 431L262 431L262 426L175 426L175 393L87 393L87 361L0 361Z" fill="#5a189a"></path></svg>